<svg width="26" height="26" viewBox="0 0 26 26" fill="none" xmlns="http://www.w3.org/2000/svg">
<path fill-rule="evenodd" clip-rule="evenodd" d="M11.7305 2.07343L10.8745 5.26793H15.1258L14.2698 2.07343C13.4262 1.97561 12.5741 1.97561 11.7305 2.07343ZM6.17159 4.376L9.03569 6.02957L6.02966 9.03562L4.37606 6.17152C4.9034 5.50584 5.50591 4.90334 6.17159 4.376ZM5.26799 10.8744L2.07349 11.7304C1.97567 12.574 1.97567 13.4261 2.07349 14.2697L5.26799 15.1257V10.8744ZM4.37606 19.8285L6.02963 16.9644L9.03568 19.9704L6.17158 21.624C5.5059 21.0967 4.9034 20.4941 4.37606 19.8285ZM10.8744 20.7321L11.7304 23.9266C12.574 24.0244 13.4261 24.0244 14.2697 23.9266L15.1257 20.7321H10.8744ZM19.8285 21.6241L16.9644 19.9705L19.9705 16.9644L21.6241 19.8285C21.0967 20.4942 20.4942 21.0967 19.8285 21.6241ZM20.7321 15.1256L23.9266 14.2696C24.0245 13.426 24.0245 12.574 23.9266 11.7304L20.7321 10.8744V15.1256V15.1256ZM21.6241 6.17154L19.9705 9.03564L16.9644 6.0296L19.8285 4.376C20.4942 4.90335 21.0968 5.50586 21.6241 6.17154Z" fill="#087299"/>
<path fill-rule="evenodd" clip-rule="evenodd" d="M4.50012 13C4.50012 8.30561 8.30568 4.50005 13.0001 4.50005C17.6945 4.50005 21.5 8.30561 21.5 13C21.5 17.6944 17.6945 21.5 13.0001 21.5C8.30568 21.5 4.50012 17.6944 4.50012 13ZM7.00007 13C7.00007 16.3137 9.68636 19 13.0001 19C16.3138 19 19.0001 16.3137 19.0001 13C19.0001 9.68629 16.3138 7 13.0001 7C9.68636 7 7.00007 9.68629 7.00007 13Z" fill="#00A3E0"/>
</svg>
