<svg width="26" height="26" viewBox="0 0 26 26" fill="none" xmlns="http://www.w3.org/2000/svg">
<path d="M7.24241 16.9999H12.0015L10.6011 18.9999H6.20128L2.00012 13L6.20128 7.00012H10.6011L12.0015 9.00009H7.24241L4.44163 13L7.24241 16.9999Z" fill="#087299"/>
<path d="M14.8023 13L13.4019 15H11.3028L9.90234 13L11.3028 11H13.4019L14.8023 13Z" fill="#114459"/>
<path d="M24.0001 13C24.0001 18.5228 19.523 22.9999 14.0003 22.9999V23H11.0022L9.60177 21H14.0003V20.9999C18.4114 20.9999 22.0001 17.4111 22.0001 13C22.0001 8.58886 18.4114 5.00012 14.0003 5.00012H9.60168L11.0021 3.00012H14.0003C19.523 3.00012 24.0001 7.47722 24.0001 13Z" fill="#00A3E0"/>
</svg>
