<svg width="26" height="26" viewBox="0 0 26 26" fill="none" xmlns="http://www.w3.org/2000/svg">
<path d="M14.054 13.7C14.3926 13.5115 14.6591 13.2159 14.8116 12.8596C14.9641 12.5034 14.994 12.1065 14.8966 11.7314C14.7993 11.3563 14.5801 11.0241 14.2736 10.7869C13.9671 10.5498 13.5905 10.4211 13.203 10.421H13.176C13.134 10.421 13.094 10.432 13.052 10.435V17.414C13.094 17.414 13.134 17.414 13.177 17.414C13.801 17.414 14.419 17.388 15.031 17.336L14.054 13.7Z" fill="#087299"/>
<path d="M13.051 17.417V10.438C12.6829 10.4684 12.334 10.615 12.0546 10.8567C11.7752 11.0984 11.5799 11.4226 11.4969 11.7825C11.4139 12.1425 11.4474 12.5195 11.5927 12.8591C11.7379 13.1987 11.9874 13.4834 12.305 13.672L11.321 17.344C11.891 17.392 12.469 17.414 13.051 17.417Z" fill="#00A3E0"/>
<path d="M13.051 24.4209L22.051 18.1249V1.86694L20.465 0.767944L13.051 5.97994V8.42094L20.05 3.52394H20.051V17.0829V17.0839L20.05 17.0829L13.051 21.9799V24.4209Z" fill="#087299"/>
<path d="M13.051 8.42094V5.97994L5.63603 0.767944L4.05103 1.86594V18.1249L13.051 24.4209V21.9799L6.05103 17.0839V17.0829V3.52394L13.051 8.42094Z" fill="#00A3E0"/>
</svg>
