<svg width="469" height="160" viewBox="0 0 469 160" fill="none" xmlns="http://www.w3.org/2000/svg">
<path d="M163 125.4L162.3 127.6C161.5 127.4 160.8 127.4 160 127.4C157.7 127.4 156.6 128.7 156.6 131.2V132.7H161.3V135.1H156.6V151.4H153.5V135.1H150.2V133.1L153.5 132.7V131.1C153.5 129.1 154 127.6 155.1 126.5C156.2 125.4 157.7 124.9 159.8 124.9C161 124.9 162.1 125.1 163 125.4Z" fill="white"/>
<path d="M164.7 136.9C164.7 135.5 164.6 134.1 164.4 132.7H167.4C167.5 133.5 167.6 134.5 167.7 135.7H167.8C168.9 133.4 170.8 132.2 173.7 132.2C173.9 132.2 174.3 132.2 174.8 132.3L174.6 135C174.4 135 174 134.9 173.5 134.9C171.7 134.9 170.3 135.5 169.4 136.7C168.4 137.9 168 139.5 168 141.4V151.4H164.9V136.9H164.7Z" fill="white"/>
<path d="M194.6 142C194.6 143.9 194.2 145.7 193.5 147.2C192.8 148.7 191.7 149.9 190.3 150.7C188.9 151.5 187.2 151.9 185.3 151.9C183.4 151.9 181.7 151.5 180.3 150.6C178.9 149.8 177.8 148.6 177.1 147.1C176.4 145.6 176 143.9 176 142C176 139 176.8 136.6 178.5 134.9C180.1 133.1 182.4 132.2 185.4 132.2C187.4 132.2 189.1 132.6 190.5 133.4C191.9 134.2 193 135.4 193.7 136.8C194.2 138.3 194.6 140.1 194.6 142ZM179.1 142C179.1 144.2 179.6 146 180.6 147.4C181.6 148.8 183.2 149.4 185.2 149.4C187.3 149.4 188.8 148.7 189.9 147.4C190.9 146 191.4 144.3 191.4 142C191.4 139.8 190.9 138 189.9 136.7C188.9 135.4 187.3 134.7 185.2 134.7C183.1 134.7 181.6 135.4 180.6 136.7C179.6 138 179.1 139.8 179.1 142Z" fill="white"/>
<path d="M198.6 136.9C198.6 135.5 198.5 134.1 198.3 132.7H201.3C201.4 133.4 201.5 134.2 201.6 135.3H201.7C202.3 134.4 203.1 133.6 204.2 133C205.3 132.4 206.5 132.1 207.9 132.1C209.5 132.1 210.8 132.4 211.8 133.1C212.8 133.8 213.5 134.7 214 135.9H214.1C214.7 134.7 215.6 133.8 216.7 133.1C217.8 132.4 219.1 132.1 220.7 132.1C222.2 132.1 223.5 132.4 224.6 133.1C225.6 133.8 226.4 134.7 226.9 135.7C227.4 136.8 227.6 138 227.6 139.3V151.3H224.5V139.8C224.5 138.4 224.2 137.1 223.5 136.2C222.8 135.2 221.7 134.7 220.1 134.7C219 134.7 218 135 217.2 135.6C216.4 136.2 215.8 137 215.4 137.9C215 138.9 214.8 139.9 214.8 141.1V151.3H211.7V139.7C211.7 138.3 211.3 137.1 210.6 136.1C209.9 135.1 208.8 134.7 207.3 134.7C205.7 134.7 204.4 135.3 203.4 136.4C202.4 137.5 202 138.9 202 140.6V151.3H198.9V136.9H198.6Z" fill="white"/>
<path d="M289 149L290.7 146.9C291.8 147.7 292.8 148.3 294 148.7C295.1 149.1 296.4 149.3 297.8 149.3C299.6 149.3 301 148.9 302.1 148.1C303.2 147.3 303.7 146.1 303.7 144.5C303.7 143.4 303.4 142.5 302.9 141.8C302.4 141.1 301.7 140.6 300.8 140.1C299.9 139.7 298.7 139.3 297.2 138.9C294.8 138.3 293 137.4 291.8 136.3C290.6 135.2 290 133.7 290 131.7C290 129.5 290.8 127.8 292.4 126.6C294 125.4 296.1 124.8 298.6 124.8C300.2 124.8 301.6 125 302.9 125.4C304.2 125.8 305.4 126.4 306.5 127.2L305 129.3C304 128.6 303 128.2 301.9 127.8C300.9 127.5 299.8 127.3 298.5 127.3C296.9 127.3 295.5 127.6 294.5 128.3C293.5 129 293 130 293 131.3C293 132.6 293.5 133.6 294.4 134.3C295.3 135 296.8 135.6 298.9 136.1C301.5 136.8 303.5 137.7 304.8 138.9C306.1 140.1 306.8 141.8 306.8 144.1C306.8 145.8 306.4 147.2 305.6 148.3C304.8 149.4 303.7 150.3 302.3 150.9C300.9 151.5 299.3 151.8 297.6 151.8C294.3 152 291.4 151 289 149Z" fill="white"/>
<path d="M309.8 146.3C309.8 143.9 310.7 142.2 312.4 141.3C314.1 140.4 316.8 139.9 320.3 139.9C321.2 139.9 321.8 139.9 322.2 139.9V138.8C322.2 137.4 321.8 136.4 321.1 135.7C320.3 135 319.2 134.7 317.6 134.7C315.6 134.7 313.7 135.2 312 136.3L310.9 134.2C313 132.9 315.3 132.3 317.8 132.3C320.4 132.3 322.3 132.9 323.5 134.1C324.7 135.3 325.3 137.2 325.3 139.7V147.3C325.3 148.6 325.4 150 325.6 151.4H322.7C322.5 150.3 322.4 149.5 322.4 148.9H322.3C321.6 149.9 320.8 150.7 319.7 151.2C318.7 151.7 317.3 152 315.7 152C313.9 152 312.4 151.5 311.3 150.6C310.3 149.5 309.8 148.1 309.8 146.3ZM322.2 144.5V142.1H320.5C318.7 142.1 317.2 142.2 316.1 142.5C315 142.7 314.2 143.2 313.7 143.7C313.2 144.3 312.9 145.1 312.9 146.2C312.9 147.3 313.2 148.1 313.9 148.7C314.5 149.3 315.4 149.6 316.5 149.6C317.7 149.6 318.7 149.3 319.5 148.8C320.4 148.3 321 147.7 321.4 146.9C322 146.1 322.2 145.3 322.2 144.5Z" fill="white"/>
<path d="M334.3 125.4V151.4H331.2V125.4H334.3Z" fill="white"/>
<path d="M356.1 143.2H342.2C342.3 145.1 342.9 146.6 343.9 147.8C344.9 148.9 346.4 149.5 348.3 149.5C349.4 149.5 350.4 149.3 351.3 149C352.2 148.7 353.1 148.2 354 147.6L355.4 149.6C354.3 150.4 353.2 150.9 352 151.3C350.8 151.7 349.5 151.9 348.1 151.9C345.2 151.9 343 151 341.4 149.2C339.8 147.4 339 145 339 142C339 140.1 339.3 138.4 340 136.9C340.7 135.4 341.7 134.3 343 133.5C344.3 132.7 345.9 132.3 347.7 132.3C350.4 132.3 352.5 133.2 353.9 134.9C355.3 136.7 356 139 356 141.9C356.2 142.5 356.2 142.9 356.1 143.2ZM353.2 140.8C353.2 138.9 352.7 137.4 351.8 136.3C350.9 135.2 349.6 134.6 347.9 134.6C346.2 134.6 344.8 135.2 343.9 136.3C342.9 137.5 342.4 138.9 342.4 140.7H353.2V140.8Z" fill="white"/>
<path d="M372.2 134.2L370.8 136.1C369.4 135.1 367.8 134.6 366.1 134.6C364.9 134.6 364 134.8 363.3 135.3C362.6 135.8 362.3 136.4 362.3 137.2C362.3 137.8 362.4 138.3 362.7 138.7C363 139.1 363.4 139.4 364.1 139.7C364.7 140 365.7 140.3 366.9 140.5C368.8 141 370.2 141.6 371.1 142.5C372 143.4 372.5 144.6 372.5 146C372.5 147.8 371.8 149.3 370.4 150.3C369 151.3 367.3 151.8 365.3 151.8C362.6 151.8 360.4 151.1 358.5 149.6L359.9 147.7C360.7 148.3 361.6 148.7 362.4 148.9C363.2 149.2 364.1 149.3 365.2 149.3C366.4 149.3 367.4 149 368.2 148.5C368.9 148 369.3 147.2 369.3 146.2C369.3 145.5 369.2 145 368.9 144.6C368.6 144.2 368.2 143.9 367.6 143.6C367 143.3 366 143 364.8 142.7C362.9 142.2 361.5 141.6 360.6 140.7C359.7 139.9 359.3 138.7 359.3 137.3C359.3 135.7 359.9 134.4 361.2 133.5C362.4 132.6 364.1 132.1 366.1 132.1C368.4 132.2 370.5 132.9 372.2 134.2Z" fill="white"/>
<path d="M387.9 125.4L387.2 127.6C386.4 127.4 385.7 127.4 384.9 127.4C382.6 127.4 381.5 128.7 381.5 131.2V132.7H386.2V135.1H381.5V151.4H378.4V135.1H375.1V133.1L378.4 132.7V131.1C378.4 129.1 378.9 127.6 380 126.5C381.1 125.4 382.6 124.9 384.7 124.9C385.8 124.9 386.9 125.1 387.9 125.4Z" fill="white"/>
<path d="M407 142C407 143.9 406.6 145.7 405.9 147.2C405.2 148.7 404.1 149.9 402.7 150.7C401.3 151.5 399.6 151.9 397.7 151.9C395.8 151.9 394.1 151.5 392.7 150.6C391.3 149.8 390.2 148.6 389.5 147.1C388.8 145.6 388.4 143.9 388.4 142C388.4 139 389.2 136.6 390.9 134.9C392.5 133.1 394.8 132.2 397.8 132.2C399.8 132.2 401.5 132.6 402.9 133.4C404.3 134.2 405.4 135.4 406.1 136.8C406.6 138.3 407 140.1 407 142ZM391.5 142C391.5 144.2 392 146 393 147.4C394 148.8 395.6 149.4 397.6 149.4C399.7 149.4 401.2 148.7 402.3 147.4C403.3 146 403.8 144.3 403.8 142C403.8 139.8 403.3 138 402.3 136.7C401.3 135.4 399.7 134.7 397.6 134.7C395.5 134.7 394 135.4 393 136.7C392 138 391.5 139.8 391.5 142Z" fill="white"/>
<path d="M411 136.9C411 135.5 410.9 134.1 410.7 132.7H413.7C413.8 133.5 413.9 134.5 414 135.7H414.1C415.2 133.4 417.1 132.2 420 132.2C420.2 132.2 420.6 132.2 421.1 132.3L420.9 135C420.7 135 420.3 134.9 419.8 134.9C418 134.9 416.6 135.5 415.7 136.7C414.7 137.9 414.3 139.5 414.3 141.4V151.4H411V136.9Z" fill="white"/>
<path d="M431.4 132.2C432.6 132.2 433.7 132.4 434.8 132.7C435.9 133.1 436.8 133.6 437.6 134.2L436.4 136.4C435 135.3 433.3 134.8 431.4 134.8C429.4 134.8 427.9 135.5 426.8 136.8C425.8 138.1 425.3 139.9 425.3 142.1C425.3 144.3 425.8 146 426.8 147.3C427.8 148.6 429.3 149.3 431.3 149.3C433 149.3 434.7 148.8 436.3 147.7L437.4 149.9C435.5 151.2 433.4 151.9 431 151.9C428.9 151.9 427.2 151.4 425.8 150.5C424.5 149.6 423.5 148.3 422.9 146.8C422.3 145.3 422 143.7 422 142C422 139 422.8 136.6 424.5 134.8C426.2 133.1 428.5 132.2 431.4 132.2Z" fill="white"/>
<path d="M456.8 143.2H443C443.1 145.1 443.7 146.6 444.7 147.8C445.7 148.9 447.2 149.5 449.1 149.5C450.2 149.5 451.2 149.3 452.1 149C453 148.7 453.9 148.2 454.8 147.6L456.2 149.6C455.1 150.4 454 150.9 452.8 151.3C451.6 151.7 450.3 151.9 448.9 151.9C446 151.9 443.8 151 442.2 149.2C440.6 147.4 439.8 145 439.8 142C439.8 140.1 440.1 138.4 440.8 136.9C441.5 135.4 442.5 134.3 443.8 133.5C445.1 132.7 446.7 132.3 448.5 132.3C451.2 132.3 453.3 133.2 454.7 134.9C456.1 136.7 456.8 139 456.8 141.9C456.9 142.5 456.9 142.9 456.8 143.2ZM453.8 140.8C453.8 138.9 453.3 137.4 452.4 136.3C451.5 135.2 450.2 134.6 448.5 134.6C446.8 134.6 445.4 135.2 444.5 136.3C443.5 137.5 443 138.9 443 140.7H453.8V140.8Z" fill="white"/>
<path d="M256.3 128.1C257 127.3 257.9 126.7 258.9 126.3C259.9 125.9 261 125.6 262 125.6C263.4 125.6 264.8 126 266.1 126.7C267.3 127.4 268.4 128.5 269 129.8C270.3 129.2 271.6 128.9 273 128.9C275.6 128.9 278.2 130 280 131.8C281.9 133.7 282.9 136.2 282.9 138.9C282.9 141.6 281.9 144.1 280 146C278.1 147.9 275.6 148.9 273 148.9C272.4 148.9 271.7 148.8 271.1 148.7C270.2 150.3 268.7 151.5 267 152.1C265.2 152.6 263.3 152.5 261.7 151.7C261.1 153.2 260 154.5 258.6 155.4C257.2 156.3 255.6 156.8 253.9 156.7C252.3 156.7 250.7 156.2 249.3 155.2C248 154.2 246.9 152.9 246.4 151.3C245.9 151.4 245.3 151.5 244.8 151.5C243.5 151.5 242.1 151.1 241 150.4C239.8 149.7 238.9 148.7 238.2 147.5C237.5 146.3 237.2 145 237.2 143.6C237.2 142.2 237.5 140.9 238.2 139.7C238.9 138.5 239.8 137.5 241 136.9C240.1 134.9 240 132.6 240.7 130.6C241.4 128.5 242.8 126.8 244.6 125.7C246.5 124.6 248.7 124.2 250.8 124.6C253 125.2 255 126.3 256.3 128.1Z" fill="white"/>
<path d="M62.1 118.3C31.4 118.3 6.50001 93.4 6.50001 62.7C6.50001 32 31.4 7.2 62.1 7.2C92.8 7.2 117.7 32.1 117.7 62.8C117.7 93.5 92.8 118.3 62.1 118.3ZM62.1 1.7C28.5 1.7 1.10001 28.8 1.10001 62.4C1.10001 96 28.5 123.1 62.1 123.1C95.7 123.1 123.1 96 123.1 62.4C123.1 28.8 95.8 1.7 62.1 1.7Z" fill="white"/>
<path d="M46.4 89.8C37.3 85.4 30.7 75.5 30.7 64.6C30.7 58.8 32.5 53.3 35.5 48.5L55.6 78.5H67.7L87.8 48.5C90.7 52.9 92.6 58.7 92.6 64.6C92.6 75.2 87.1 84.3 78.7 89.1L82.7 103.7C97.3 96 107.6 80.7 107.6 63.1C107.6 46.3 98.5 31.7 85.3 24L61.8 59.8L38.8 23.6C25.3 31.6 16.1 46.3 16.1 63.1C16.1 81.4 26.7 97.1 42.4 104.4L46.4 89.8Z" fill="white"/>
<path d="M177.8 68.9L159.9 30.9H150.6V92H159.9V51.2L174.3 81H181.2L195.3 51.2V92H204.6V30.9H195.3L177.8 68.9Z" fill="white"/>
<path d="M239.4 75C239.4 81.7 235.2 84.7 230.4 84.7C225.6 84.7 221.6 81.8 221.6 75V48.5H212.8V76.3C212.8 81.2 213.8 85.3 217.2 88.6C219.8 91.1 223.5 92.5 227.9 92.5C232.3 92.6 236.5 90.8 239.5 87.6V92H248.1V48.5H239.3V75H239.4Z" fill="white"/>
<path d="M265.3 79.5V30.9H256.5V80C256.5 86.4 260.1 92 268.4 92H273.8V84.5H270C266.5 84.6 265.3 82.9 265.3 79.5Z" fill="white"/>
<path d="M294.9 48C283.7 48 276.4 56.2 276.4 70.2C276.4 86.8 285.1 92.5 296 92.5C303.6 92.5 307.8 90.2 312.3 85.7L306.7 80.5C303.6 83.6 301 85 296.1 85C289 85 285 80.3 285 72.8H313.2V68.9C313.4 56.6 306.6 48 294.9 48ZM285.2 66.7C285.3 64 285.5 62.8 286.3 60.8C287.8 57.4 291.2 55.2 295 55.3C298.7 55.2 302.1 57.4 303.6 60.8C304.4 62.7 304.8 64.7 304.8 66.7H285.2Z" fill="white"/>
<path d="M356.6 62.1C354 59.8 350.9 58.4 345.2 57.6L338.3 56.6C335.8 56.3 333.4 55.3 331.4 53.8C329.8 52.3 329 50.3 329.1 48.1C329.1 42.7 333 38.6 340.3 38.6C345.4 38.6 349.8 39.7 353.6 43.3L359.5 37.5C354.3 32.6 348.6 30.6 340.5 30.6C327.8 30.6 320.1 37.9 320.1 48.5C320.1 53.5 321.6 57.3 324.6 60.2C327.3 62.7 331.2 64.4 336.2 65.1L343.4 66.1C347 66.6 348.6 67.2 350.1 68.7C351.6 70.2 352.5 72.4 352.5 75.1C352.5 81 347.9 84.4 339.9 84.4C333.6 84.4 328.7 83 324.3 78.6L318.1 84.7C323.9 90.6 330.6 92.8 339.7 92.8C352.5 92.8 361.7 86.1 361.7 74.9C361.6 69.4 360 65 356.6 62.1Z" fill="white"/>
<path d="M384.7 48C378.8 48 374.6 50.2 371.7 53.2C367.6 57.5 366.5 63 366.5 70.3C366.5 77.6 367.5 83.2 371.7 87.5C374.5 90.4 378.7 92.7 384.7 92.7C390.6 92.7 394.9 90.5 397.8 87.5C401.9 83.2 403 77.7 403 70.3C403 62.9 402 57.5 397.8 53.2C394.9 50.2 390.6 48 384.7 48ZM391.2 82.2C389.5 83.9 387.2 84.8 384.8 84.8C382.4 84.8 380.1 83.9 378.5 82.2C375.8 79.5 375.5 75 375.5 70.3C375.5 65.6 375.8 61 378.5 58.4C380.2 56.7 382.5 55.8 384.8 55.9C387.2 55.8 389.5 56.7 391.2 58.4C393.9 61.1 394.2 65.6 394.2 70.3C394.2 75 393.8 79.5 391.2 82.2Z" fill="white"/>
<path d="M411.8 42.6V49.3H406.8V56H411.8V92.1H420.6V56H429.3V49.3H420.6V43.1C420.6 39.9 422.1 38 425.4 38H429.3V30.5H423.8C415.5 30.5 411.8 36.3 411.8 42.6Z" fill="white"/>
<path d="M448.3 36.1H439.6V49.3H434.6V56H439.6V80C439.6 86.3 443.4 92.1 451.5 92.1H456.7V84.6H453.1C449.8 84.6 448.3 82.7 448.3 79.5V56H456.7V49.3H448.3V36.1Z" fill="white"/>
<path d="M467.6 42.8C467.4 42.2 467 41.7 466.6 41.3C466.2 40.9 465.7 40.5 465.1 40.3C464.5 40.1 463.9 39.9 463.3 39.9C462.7 39.9 462.1 40 461.5 40.3C460.9 40.5 460.4 40.9 460 41.3C459.6 41.7 459.2 42.2 459 42.8C458.7 43.4 458.6 44 458.6 44.6C458.6 46.5 459.7 48.2 461.5 49C462.1 49.2 462.7 49.4 463.3 49.4C464.5 49.4 465.7 48.9 466.6 48.1C467 47.7 467.4 47.2 467.6 46.6C467.9 46 468 45.4 468 44.7C468 44 467.9 43.4 467.6 42.8ZM466.8 46.3C466.4 47.2 465.7 48 464.8 48.4C464.3 48.6 463.8 48.7 463.3 48.7C462.8 48.7 462.2 48.6 461.8 48.4C461.3 48.2 460.9 47.9 460.6 47.5C460.2 47.1 460 46.7 459.8 46.2C459.6 45.7 459.5 45.1 459.5 44.6C459.5 44.1 459.6 43.5 459.8 43C460 42.5 460.3 42.1 460.6 41.7C461.3 41 462.3 40.5 463.4 40.6C463.9 40.6 464.4 40.7 464.9 40.9C465.4 41.1 465.8 41.4 466.1 41.7C466.5 42.1 466.7 42.5 466.9 42.9C467.1 43.4 467.2 43.9 467.2 44.5C467.1 45.2 467 45.7 466.8 46.3Z" fill="white"/>
<path d="M465.1 44.6C465.4 44.3 465.6 43.9 465.5 43.5C465.5 43.1 465.4 42.6 465 42.3C464.6 42 464.1 41.9 463.5 41.9H461.4V47.4H462.2V45H463.1L464.6 47.4H465.5L464 45C464.4 45 464.8 44.8 465.1 44.6ZM463.2 44.4H462.3V42.7H463.4C463.5 42.7 463.7 42.7 463.8 42.7C463.9 42.7 464.1 42.8 464.2 42.8C464.3 42.9 464.4 42.9 464.5 43C464.6 43.1 464.6 43.3 464.6 43.4C464.6 43.6 464.6 43.8 464.5 43.9C464.4 44 464.3 44.1 464.2 44.2C464.1 44.3 463.9 44.3 463.7 44.3C463.6 44.4 463.4 44.4 463.2 44.4Z" fill="white"/>
</svg>
