<svg width="26" height="26" viewBox="0 0 26 26" fill="none" xmlns="http://www.w3.org/2000/svg">
<path fill-rule="evenodd" clip-rule="evenodd" d="M6.93057 8.76843L6.35693 9.58757L9.03789 11.4648L9.61152 10.6457L6.93057 8.76843ZM11.7374 15.416L10.5426 19.8753L9.57656 19.6165L10.7714 15.1572L11.7374 15.416ZM14.0627 10.74L16.2705 9.194L16.8441 10.0131L14.6363 11.5591L14.0627 10.74Z" fill="#114459"/>
<path fill-rule="evenodd" clip-rule="evenodd" d="M19.5 12C17.0147 12 15 9.98528 15 7.5C15 5.01472 17.0147 3 19.5 3C21.9853 3 24 5.01472 24 7.5C24 9.98528 21.9853 12 19.5 12ZM16.5 7.5C16.5 5.8458 17.8458 4.5 19.5 4.5C21.1542 4.5 22.5 5.8458 22.5 7.5C22.5 9.1542 21.1542 10.5 19.5 10.5C17.8458 10.5 16.5 9.1542 16.5 7.5ZM5 11C3.34315 11 2 9.65686 2 8C2 6.34315 3.34315 5 5 5C6.65686 5 8 6.34315 8 8C8 9.65686 6.65686 11 5 11ZM5 6.5C4.1729 6.5 3.5 7.1729 3.5 8C3.5 8.8271 4.1729 9.5 5 9.5C5.8271 9.5 6.5 8.8271 6.5 8C6.5 7.1729 5.8271 6.5 5 6.5ZM8.60133 21.5C8.60133 20.9486 9.04993 20.5 9.60133 20.5C10.1527 20.5 10.6013 20.9486 10.6013 21.5C10.6013 22.0514 10.1527 22.5 9.60133 22.5C9.04993 22.5 8.60133 22.0514 8.60133 21.5ZM9.60133 24C8.22062 24 7.10133 22.8807 7.10133 21.5C7.10133 20.1193 8.22062 19 9.60133 19C10.982 19 12.1013 20.1193 12.1013 21.5C12.1013 22.8807 10.982 24 9.60133 24Z" fill="#00A3E0"/>
<path fill-rule="evenodd" clip-rule="evenodd" d="M11.9043 16.3615C9.9713 16.3615 8.4043 14.7944 8.4043 12.8615C8.4043 10.9285 9.9713 9.36145 11.9043 9.36145C13.8373 9.36145 15.4043 10.9285 15.4043 12.8615C15.4043 14.7944 13.8373 16.3615 11.9043 16.3615ZM11.9043 10.8614C10.8015 10.8614 9.9043 11.7586 9.9043 12.8614C9.9043 13.9643 10.8015 14.8614 11.9043 14.8614C13.0071 14.8614 13.9043 13.9643 13.9043 12.8614C13.9043 11.7586 13.0071 10.8614 11.9043 10.8614Z" fill="#087299"/>
</svg>
