<svg width="26" height="26" viewBox="0 0 26 26" fill="none" xmlns="http://www.w3.org/2000/svg">
<path d="M23 13C23 7.47715 18.5229 3 13 3C7.47715 3 3 7.47715 3 13C3 17.6596 6.18695 21.5749 10.5 22.685V21.1257C7.02581 20.0581 4.5 16.8243 4.5 13C4.5 8.30558 8.30558 4.5 13 4.5C17.6944 4.5 21.5 8.30558 21.5 13C21.5 15.3384 20.5553 17.4559 19.0272 18.9927L19.8995 20.2386C21.8097 18.4173 23 15.8477 23 13Z" fill="#087299"/>
<path fill-rule="evenodd" clip-rule="evenodd" d="M20.0019 23L15.5774 16.6809C16.7374 15.8669 17.5 14.5248 17.5 13.0001C17.5 10.5149 15.4853 8.50012 13 8.50012C10.5147 8.50012 8.5 10.5149 8.5 13.0001C8.5 15.4854 10.5147 17.5001 13 17.5001C13.2158 17.5001 13.4232 17.4691 13.6304 17.4382L13.6627 17.4333L17.5604 23H20.0019ZM10.5 13.0001C10.5 11.6194 11.6193 10.5001 13 10.5001C14.3807 10.5001 15.5 11.6194 15.5 13.0001C15.5 14.3809 14.3807 15.5001 13 15.5001C11.6193 15.5001 10.5 14.3809 10.5 13.0001ZM10.9999 19.4004L8.99994 18V23H10.9999V19.4004Z" fill="#00A3E0"/>
</svg>
