<svg width="26" height="26" viewBox="0 0 26 26" fill="none" xmlns="http://www.w3.org/2000/svg">
<path d="M5.6 10.8C6.48366 10.8 7.2 10.0836 7.2 9.19998C7.2 8.31632 6.48366 7.59998 5.6 7.59998C4.71634 7.59998 4 8.31632 4 9.19998C4 10.0836 4.71634 10.8 5.6 10.8Z" fill="#087299"/>
<path d="M5.6 18.7C6.48366 18.7 7.2 17.9837 7.2 17.1C7.2 16.2163 6.48366 15.5 5.6 15.5C4.71634 15.5 4 16.2163 4 17.1C4 17.9837 4.71634 18.7 5.6 18.7Z" fill="#087299"/>
<path d="M21.4 18.7C22.2837 18.7 23 17.9837 23 17.1C23 16.2163 22.2837 15.5 21.4 15.5C20.5164 15.5 19.8 16.2163 19.8 17.1C19.8 17.9837 20.5164 18.7 21.4 18.7Z" fill="#087299"/>
<path d="M21.4 10.8C22.2837 10.8 23 10.0836 23 9.19998C23 8.31632 22.2837 7.59998 21.4 7.59998C20.5164 7.59998 19.8 8.31632 19.8 9.19998C19.8 10.0836 20.5164 10.8 21.4 10.8Z" fill="#087299"/>
<path d="M13.5 4.2C14.3837 4.2 15.1 3.48366 15.1 2.6C15.1 1.71634 14.3837 1 13.5 1C12.6164 1 11.9 1.71634 11.9 2.6C11.9 3.48366 12.6164 4.2 13.5 4.2Z" fill="#087299"/>
<path d="M13.5 10.8C14.3837 10.8 15.1 10.0836 15.1 9.19998C15.1 8.31632 14.3837 7.59998 13.5 7.59998C12.6164 7.59998 11.9 8.31632 11.9 9.19998C11.9 10.0836 12.6164 10.8 13.5 10.8Z" fill="#087299"/>
<path d="M14.3 11.5H12.8V14.8H14.3V11.5Z" fill="#00A2DF"/>
<path d="M19.1 6.8L15.8 4.5V6.3L19.1 8.6V6.8Z" fill="#00A2DF"/>
<path d="M19.1 13.4L15.8 11.1V12.9L19.1 15.2V13.4Z" fill="#48C1ED"/>
<path d="M11.2 13.4L7.90002 11.1V12.9L11.2 15.2V13.4Z" fill="#48C1ED"/>
<path d="M11.2 20L7.90002 17.7V19.5L11.2 21.9V20Z" fill="#00A2DF"/>
<path d="M13.5 18.7C14.3837 18.7 15.1 17.9837 15.1 17.1C15.1 16.2163 14.3837 15.5 13.5 15.5C12.6164 15.5 11.9 16.2163 11.9 17.1C11.9 17.9837 12.6164 18.7 13.5 18.7Z" fill="#087299"/>
<path d="M13.5 25.3C14.3837 25.3 15.1 24.5836 15.1 23.7C15.1 22.8163 14.3837 22.1 13.5 22.1C12.6164 22.1 11.9 22.8163 11.9 23.7C11.9 24.5836 12.6164 25.3 13.5 25.3Z" fill="#087299"/>
</svg>
