<svg width="26" height="26" viewBox="0 0 26 26" fill="none" xmlns="http://www.w3.org/2000/svg">
<path d="M17.24 3.75V9.75L19.36 11.87V5.87L17.24 3.75ZM8.76002 7.26L6.64001 8.14V11.14L8.76002 13.26V10.26L17.24 18.73L19.36 17.86L8.76002 7.26ZM6.64001 20.13L8.76002 22.25V19.25L6.64001 17.13V20.13Z" fill="#087299"/>
<path d="M8.76003 13.26L6.64003 11.14L4.53003 9.02L2.41003 9.9V21.88L4.53003 24V12.02L13 20.49V17.49L8.76003 13.26ZM21.47 2V13.98L13 5.51V8.51L21.47 16.98L23.59 16.1V4.12L21.47 2Z" fill="#00A3E0"/>
</svg>
