<svg width="26" height="26" viewBox="0 0 26 26" fill="none" xmlns="http://www.w3.org/2000/svg">
<path fill-rule="evenodd" clip-rule="evenodd" d="M3.5 13C3.5 10.918 4.17029 8.9928 5.30609 7.42725L4.23389 6.3551C2.83234 8.20129 2 10.5033 2 13C2 15.4967 2.83234 17.7987 4.23389 19.6448L5.30609 18.5726C4.17029 17.0072 3.5 15.082 3.5 13ZM20.694 7.42725L21.7662 6.3551C23.1678 8.20129 24.0001 10.5033 24.0001 13C24.0001 15.4967 23.1678 17.7987 21.7662 19.6448L20.694 18.5726C21.8298 17.0072 22.5001 15.082 22.5001 13C22.5001 10.918 21.8298 8.9928 20.694 7.42725Z" fill="#114459"/>
<path d="M21.7662 6.3551L6.35522 21.7661C5.5553 21.1589 4.84119 20.4448 4.23389 19.6448L19.645 4.23389C20.4448 4.84106 21.159 5.55518 21.7662 6.3551Z" fill="#00A3E0"/>
<path fill-rule="evenodd" clip-rule="evenodd" d="M11.5859 9.46436L6.35516 4.23389C5.55536 4.84106 4.84119 5.55518 4.23389 6.3551L9.4646 11.5857L11.5859 9.46436ZM14.4143 16.5354L16.5356 14.4142L21.7662 19.6448C21.159 20.4448 20.4448 21.1589 19.645 21.7661L14.4143 16.5354Z" fill="#087299"/>
</svg>
